# xmcd
#
# Track frame offsets:
#	150
#	13705
#	30002
#	44735
#	55772
#	67855
#	84305
#	97282
#	112697
#	124735
#	142887
#	161172
#
# Disc length: 2386 seconds
#
# Revision: 1097758841
# Processed by: cddbd v1.5.2PL0 Copyright (c) Steve Scherf et al.
# Submitted via: EZCDAudioConverter 8.2.1.1
#
DISCID=9109500c
DTITLE=Oak Ridge Boys - The Best Of The Oak Ridge Boys · The Millennium Collec
DTITLE=tion
DYEAR=2000
DGENRE=Pop/Country/Softpop
TTITLE0=Leaving Louisiana In The Broad Daylight - (2000)
TTITLE1=I'll Be True To You - (2000)
TTITLE2=Dream On - (2000)
TTITLE3=Trying To Love Two Women - (2000)
TTITLE4=Elvira - (2000)
TTITLE5=Fancy Free - (2000)
TTITLE6=Bobbie Sue - (2000)
TTITLE7=I Wish You Could Have Turned My Head (And Left My Heart Alone) - (2000
TTITLE7=)
TTITLE8=American Made - (2000)
TTITLE9=I Guess It Never Hurts To Hurt Sometimes - (2000)
TTITLE10=Make My Life With You - (2000)
TTITLE11=It Takes A Little Rain (To Make Love Grow) - (2000)
EXTD=
EXTT0=
EXTT1=
EXTT2=
EXTT3=
EXTT4=
EXTT5=
EXTT6=
EXTT7=
EXTT8=
EXTT9=
EXTT10=
EXTT11=
PLAYORDER=
